<svg xmlns="http://www.w3.org/2000/svg" viewBox="0 0 100 100">
  <path class="piece-main" d="M 25.00 100.00 L 75.00 100.00 L 75.00 86.80 L 65.80 86.80 L 59.40 52.60 L 73.30 20.00 L 67.20 21.70 L 59.40 35.60 L 62.00 18.30 L 58.50 11.70 L 49.80 33.90 L 40.60 11.70 L 37.20 18.70 L 40.60 23.00 L 39.80 35.60 L 31.50 21.30 L 25.80 20.00 L 39.80 53.00 L 33.30 86.80 L 25.00 86.80 Z" fill="var(--piece-w, #f4f4f2)" />
  <path class="piece-shade" d="M 58.50 100.00 L 75.00 100.00 L 75.00 86.80 L 65.80 86.80 L 59.40 52.60 L 73.30 20.00 L 67.20 21.70 L 67.20 27.80 L 58.50 36.10 L 58.50 23.00 L 61.50 20.00 L 58.50 12.20 L 50.60 51.30 L 40.20 51.30 L 40.60 53.90 L 51.10 59.60 L 53.30 86.10 L 58.50 86.80 Z" fill="var(--piece-w-shade, #d3d5d5)" />
  <path class="piece-shade" d="M 40.60 11.70 L 45.40 17.40 L 44.10 23.50 L 49.40 34.40 L 46.30 41.70 Z" fill="var(--piece-w-shade, #d3d5d5)" />
</svg>
