<svg xmlns="http://www.w3.org/2000/svg" viewBox="0 0 100 100" width="100" height="100">
  <defs>
    <clipPath id="circle-clip-play">
      <circle cx="50" cy="50" r="48" />
    </clipPath>
    <linearGradient id="bg-play" x1="0" y1="0" x2="1" y2="1">
      <stop offset="0%" stop-color="#319795"/>
      <stop offset="100%" stop-color="#1d4044"/>
    </linearGradient>
    <linearGradient id="skin-play" x1="0" y1="0" x2="0" y2="1">
      <stop offset="0%" stop-color="#fbd38d"/>
      <stop offset="100%" stop-color="#ed8936"/>
    </linearGradient>
  </defs>
  <g clip-path="url(#circle-clip-play)">
    <circle cx="50" cy="50" r="50" fill="url(#bg-play)" />
    <!-- Back Hair -->
    <path d="M26 36 C24 60 26 80 32 95 L68 95 C74 80 76 60 74 36 Z" fill="#2d3748" />
    <!-- Shoulders / Blouse -->
    <path d="M15 95 C15 76 30 70 50 70 C70 70 85 76 85 95 Z" fill="#2d3748" />
    <path d="M40 70 Q50 82 60 70 Z" fill="url(#skin-play)" />
    <!-- Neck -->
    <rect x="43" y="54" width="14" height="18" fill="url(#skin-play)" rx="2" />
    <!-- Head -->
    <ellipse cx="50" cy="44" rx="18" ry="21" fill="url(#skin-play)" />
    <!-- Front Hair -->
    <path d="M28 42 C28 22 40 18 50 18 C62 18 72 22 72 42 C70 32 62 26 50 26 C38 26 30 32 28 42 Z" fill="#1a202c" />
    <path d="M28 38 C32 50 34 62 33 72 C31 62 30 52 28 38 Z" fill="#1a202c" />
    <path d="M72 38 C68 50 66 62 67 72 C69 62 70 52 72 38 Z" fill="#1a202c" />
    <!-- Eyes -->
    <circle cx="43" cy="44" r="2.2" fill="#1a202c" />
    <circle cx="57" cy="44" r="2.2" fill="#1a202c" />
    <!-- Eyebrows -->
    <path d="M38 39 Q43 37 47 39" stroke="#1a202c" stroke-width="1.6" stroke-linecap="round" fill="none" />
    <path d="M53 39 Q57 37 62 39" stroke="#1a202c" stroke-width="1.6" stroke-linecap="round" fill="none" />
    <!-- Smile -->
    <path d="M44 54 Q50 59 56 54" stroke="#c05621" stroke-width="1.6" stroke-linecap="round" fill="none" />
  </g>
  <circle cx="50" cy="50" r="48" fill="none" stroke="rgba(255,255,255,0.18)" stroke-width="2" />
</svg>
